# xmcd
# 
# Track frame offsets:
#     150
#     14884
#     30299
#     43176
#     65228
#     77009
#     96127
#     115382
#     133889
#     152539
#     184105
#     198464
#     211964
#     231616
#     250362
#     266519
#     289788
#     309132
# 
# Disc length: 4151
# 
# Revision: 5
# Processed by: cddbd v1.5.2PL0 Copyright (c) Steve Scherf et al.
# Submitted via: fre:ac v1.0.31
# 
DISCID=0a103512
DTITLE=Long John Baldry - It Ain't Easy
DYEAR=1971
DGENRE=Rock/Pop
TTITLE0=Intro: Conditional Discharge
TTITLE1=Don't Try to Lay No Boogie-Woogie on the King of Rock and Roll
TTITLE2=Black Girl
TTITLE3=It Ain't Easy
TTITLE4=Morning Morning
TTITLE5=I'm Ready
TTITLE6=Let's Burn Down The Cornfield
TTITLE7=Mr. Rubin
TTITLE8=Rock Me When He's Gone
TTITLE9=Flying
TTITLE10=Goin' Down Slow
TTITLE11=Blues (Corn Bread, Meat, and Molasses)
TTITLE12=Love in Vain
TTITLE13=Midnight Hour Blues
TTITLE14=Black Girl (alternate take)
TTITLE15=It' Ain't Easy (alternate take)
TTITLE16=I'm Ready (alternate take)
TTITLE17=Radio Spot
EXTD=
EXTT0=
EXTT1=
EXTT2=
EXTT3=
EXTT4=
EXTT5=
EXTT6=
EXTT7=
EXTT8=
EXTT9=
EXTT10=
EXTT11=
EXTT12=
EXTT13=
EXTT14=
EXTT15=
EXTT16=
EXTT17=
PLAYORDER=
